<?xml version="1.0" encoding="UTF-8"?>
<svg version="1.1" xmlns="http://www.w3.org/2000/svg" width="404" height="407">
<path d="M0 0 C133.32 0 266.64 0 404 0 C404 134.31 404 268.62 404 407 C270.68 407 137.36 407 0 407 C0 272.69 0 138.38 0 0 Z " fill="#FBFBFB" transform="translate(0,0)"/>
<path d="M0 0 C4.95 0 9.9 0 15 0 C15 14.19 15 28.38 15 43 C24.24 43 33.48 43 43 43 C43 38.38 43 33.76 43 29 C47.95 29 52.9 29 58 29 C58 33.95 58 38.9 58 44 C67.57 44 77.14 44 87 44 C87 39.05 87 34.1 87 29 C91.95 29 96.9 29 102 29 C102 33.95 102 38.9 102 44 C97.38 44 92.76 44 88 44 C88 48.62 88 53.24 88 58 C78.1 58 68.2 58 58 58 C58 62.95 58 67.9 58 73 C53.38 73 48.76 73 44 73 C44 82.57 44 92.14 44 102 C53.57 102 63.14 102 73 102 C73 92.43 73 82.86 73 73 C77.62 73 82.24 73 87 73 C87 77.95 87 82.9 87 88 C91.95 88 96.9 88 102 88 C102 92.62 102 97.24 102 102 C97.05 102 92.1 102 87 102 C87 106.95 87 111.9 87 117 C77.43 117 67.86 117 58 117 C58 121.62 58 126.24 58 131 C53.38 131 48.76 131 44 131 C44 135.95 44 140.9 44 146 C53.57 146 63.14 146 73 146 C73 141.05 73 136.1 73 131 C77.62 131 82.24 131 87 131 C87 135.95 87 140.9 87 146 C91.95 146 96.9 146 102 146 C102 136.43 102 126.86 102 117 C106.95 117 111.9 117 117 117 C117 126.57 117 136.14 117 146 C121.62 146 126.24 146 131 146 C131 150.62 131 155.24 131 160 C116.48 160 101.96 160 87 160 C87 164.95 87 169.9 87 175 C82.38 175 77.76 175 73 175 C73 184.57 73 194.14 73 204 C87.19 204 101.38 204 116 204 C116 194.43 116 184.86 116 175 C120.95 175 125.9 175 131 175 C131 184.57 131 194.14 131 204 C126.38 204 121.76 204 117 204 C117 213.9 117 223.8 117 234 C121.62 234 126.24 234 131 234 C131 248.19 131 262.38 131 277 C126.38 277 121.76 277 117 277 C117 272.05 117 267.1 117 262 C112.05 262 107.1 262 102 262 C102 247.81 102 233.62 102 219 C97.38 219 92.76 219 88 219 C88.0309375 222.4340625 88.0309375 222.4340625 88.0625 225.9375 C88.08370868 228.29166332 88.07271741 230.64686445 88 233 C87 234 87 234 84.22436523 234.11352539 C83.01466064 234.10828857 81.80495605 234.10305176 80.55859375 234.09765625 C79.25341797 234.09443359 77.94824219 234.09121094 76.60351562 234.08789062 C75.2148431 234.07953401 73.82617123 234.07106905 72.4375 234.0625 C71.04492344 234.05748666 69.65234519 234.05292347 68.25976562 234.04882812 C64.83982549 234.03699442 61.4199075 234.01905831 58 234 C58 238.62 58 243.24 58 248 C62.95 248 67.9 248 73 248 C73 257.57 73 267.14 73 277 C63.43 277 53.86 277 44 277 C44 267.43 44 257.86 44 248 C39.05 248 34.1 248 29 248 C29 257.57 29 267.14 29 277 C19.43 277 9.86 277 0 277 C0 272.38 0 267.76 0 263 C-4.62 263 -9.24 263 -14 263 C-14 267.62 -14 272.24 -14 277 C-38.09 277 -62.18 277 -87 277 C-87 272.38 -87 267.76 -87 263 C-77.43 263 -67.86 263 -58 263 C-58 253.43 -58 243.86 -58 234 C-53.38 234 -48.76 234 -44 234 C-44 238.62 -44 243.24 -44 248 C-39.05 248 -34.1 248 -29 248 C-29 252.62 -29 257.24 -29 262 C-24.38 262 -19.76 262 -15 262 C-15 257.38 -15 252.76 -15 248 C-10.05 248 -5.1 248 0 248 C0 243.38 0 238.76 0 234 C-9.57 234 -19.14 234 -29 234 C-29 229.05 -29 224.1 -29 219 C-24.38 219 -19.76 219 -15 219 C-15 209.43 -15 199.86 -15 190 C-10.05 190 -5.1 190 0 190 C0 185.05 0 180.1 0 175 C-4.95 175 -9.9 175 -15 175 C-15 165.43 -15 155.86 -15 146 C-19.62 146 -24.24 146 -29 146 C-29 131.48 -29 116.96 -29 102 C-24.38 102 -19.76 102 -15 102 C-15 87.81 -15 73.62 -15 59 C-19.62 59 -24.24 59 -29 59 C-29 54.05 -29 49.1 -29 44 C-24.38 44 -19.76 44 -15 44 C-15 34.43 -15 24.86 -15 15 C-10.05 15 -5.1 15 0 15 C0 10.05 0 5.1 0 0 Z " fill="#040404" transform="translate(250,105)"/>
<path d="M0 0 C4.95 0 9.9 0 15 0 C15 4.95 15 9.9 15 15 C19.62 15 24.24 15 29 15 C29 29.52 29 44.04 29 59 C24.38 59 19.76 59 15 59 C15 68.57 15 78.14 15 88 C19.62 88 24.24 88 29 88 C29 92.95 29 97.9 29 103 C24.38 103 19.76 103 15 103 C15 107.62 15 112.24 15 117 C0.48 117 -14.04 117 -29 117 C-29 121.95 -29 126.9 -29 132 C-33.62 132 -38.24 132 -43 132 C-43 141.57 -43 151.14 -43 161 C-38.38 161 -33.76 161 -29 161 C-29 175.52 -29 190.04 -29 205 C-19.43 205 -9.86 205 0 205 C0 209.62 0 214.24 0 219 C-14.52 219 -29.04 219 -44 219 C-44 243.09 -44 267.18 -44 292 C-48.62 292 -53.24 292 -58 292 C-58 287.38 -58 282.76 -58 278 C-62.95 278 -67.9 278 -73 278 C-73 268.1 -73 258.2 -73 248 C-92.14 248 -111.28 248 -131 248 C-131 243.38 -131 238.76 -131 234 C-116.48 234 -101.96 234 -87 234 C-87 229.05 -87 224.1 -87 219 C-91.95 219 -96.9 219 -102 219 C-102 214.38 -102 209.76 -102 205 C-97.05 205 -92.1 205 -87 205 C-87 200.05 -87 195.1 -87 190 C-82.38 190 -77.76 190 -73 190 C-73 204.52 -73 219.04 -73 234 C-68.05 234 -63.1 234 -58 234 C-58 224.43 -58 214.86 -58 205 C-53.38 205 -48.76 205 -44 205 C-44 200.05 -44 195.1 -44 190 C-48.62 190 -53.24 190 -58 190 C-58 185.38 -58 180.76 -58 176 C-53.38 176 -48.76 176 -44 176 C-44 171.05 -44 166.1 -44 161 C-63.14 161 -82.28 161 -102 161 C-102 156.38 -102 151.76 -102 147 C-87.48 147 -72.96 147 -58 147 C-58 142.05 -58 137.1 -58 132 C-53.38 132 -48.76 132 -44 132 C-44 112.86 -44 93.72 -44 74 C-48.62 74 -53.24 74 -58 74 C-58 83.57 -58 93.14 -58 103 C-62.95 103 -67.9 103 -73 103 C-73 93.1 -73 83.2 -73 73 C-68.05 73 -63.1 73 -58 73 C-58 63.43 -58 53.86 -58 44 C-48.43 44 -38.86 44 -29 44 C-29 34.43 -29 24.86 -29 15 C-24.05 15 -19.1 15 -14 15 C-14 19.95 -14 24.9 -14 30 C-9.38 30 -4.76 30 0 30 C0 20.1 0 10.2 0 0 Z " fill="#030303" transform="translate(206,17)"/>
<path d="M0 0 C33.99 0 67.98 0 103 0 C103 33.99 103 67.98 103 103 C69.01 103 35.02 103 0 103 C0 69.01 0 35.02 0 0 Z " fill="#F8F8F8" transform="translate(16,17)"/>
<path d="M0 0 C33.66 0 67.32 0 102 0 C102 33.66 102 67.32 102 102 C68.34 102 34.68 102 0 102 C0 68.34 0 34.68 0 0 Z " fill="#FDFDFD" transform="translate(17,280)"/>
<path d="M0 0 C33.66 0 67.32 0 102 0 C102 33.66 102 67.32 102 102 C68.34 102 34.68 102 0 102 C0 68.34 0 34.68 0 0 Z " fill="#FDFDFD" transform="translate(279,18)"/>
<path d="M0 0 C4.62 0 9.24 0 14 0 C14 9.57 14 19.14 14 29 C18.95 29 23.9 29 29 29 C29 19.43 29 9.86 29 0 C33.62 0 38.24 0 43 0 C43 4.95 43 9.9 43 15 C57.52 15 72.04 15 87 15 C87 19.62 87 24.24 87 29 C77.43 29 67.86 29 58 29 C58 33.95 58 38.9 58 44 C62.62 44 67.24 44 72 44 C72 48.95 72 53.9 72 59 C62.76 59 53.52 59 44 59 C44 63.62 44 68.24 44 73 C53.57 73 63.14 73 73 73 C73 77.95 73 82.9 73 88 C68.05 88 63.1 88 58 88 C58 92.62 58 97.24 58 102 C53.05 102 48.1 102 43 102 C43 106.95 43 111.9 43 117 C38.38 117 33.76 117 29 117 C29 112.05 29 107.1 29 102 C19.43 102 9.86 102 0 102 C0 97.38 0 92.76 0 88 C4.62 88 9.24 88 14 88 C14 83.05 14 78.1 14 73 C9.38 73 4.76 73 0 73 C0 63.43 0 53.86 0 44 C4.62 44 9.24 44 14 44 C14 39.38 14 34.76 14 30 C9.38 30 4.76 30 0 30 C0 20.1 0 10.2 0 0 Z " fill="#020202" transform="translate(17,134)"/>
<path d="M0 0 C33.99 0 67.98 0 103 0 C103 33.99 103 67.98 103 103 C69.01 103 35.02 103 0 103 C0 69.01 0 35.02 0 0 Z M15 15 C15 39.09 15 63.18 15 88 C39.09 88 63.18 88 88 88 C88 63.91 88 39.82 88 15 C63.91 15 39.82 15 15 15 Z " fill="#090909" transform="translate(16,17)"/>
<path d="M0 0 C33.66 0 67.32 0 102 0 C102 33.66 102 67.32 102 102 C68.34 102 34.68 102 0 102 C0 68.34 0 34.68 0 0 Z M14 15 C14 38.76 14 62.52 14 87 C38.09 87 62.18 87 87 87 C87 63.24 87 39.48 87 15 C62.91 15 38.82 15 14 15 Z " fill="#050505" transform="translate(17,280)"/>
<path d="M0 0 C33.66 0 67.32 0 102 0 C102 33.66 102 67.32 102 102 C68.34 102 34.68 102 0 102 C0 68.34 0 34.68 0 0 Z M15 14 C15 38.09 15 62.18 15 87 C38.76 87 62.52 87 87 87 C87 62.91 87 38.82 87 14 C63.24 14 39.48 14 15 14 Z " fill="#050505" transform="translate(279,18)"/>
<path d="M0 0 C4.95 0 9.9 0 15 0 C15 4.95 15 9.9 15 15 C19.62 15 24.24 15 29 15 C29 29.52 29 44.04 29 59 C24.38 59 19.76 59 15 59 C15 68.57 15 78.14 15 88 C19.62 88 24.24 88 29 88 C29 92.95 29 97.9 29 103 C19.43 103 9.86 103 0 103 C0 98.05 0 93.1 0 88 C-4.62 88 -9.24 88 -14 88 C-14 92.95 -14 97.9 -14 103 C-18.95 103 -23.9 103 -29 103 C-29 93.1 -29 83.2 -29 73 C-24.38 73 -19.76 73 -15 73 C-15 68.38 -15 63.76 -15 59 C-19.62 59 -24.24 59 -29 59 C-29 44.48 -29 29.96 -29 15 C-24.05 15 -19.1 15 -14 15 C-14 19.95 -14 24.9 -14 30 C-9.38 30 -4.76 30 0 30 C0 20.1 0 10.2 0 0 Z " fill="#070707" transform="translate(206,17)"/>
<path d="M0 0 C4.95 0 9.9 0 15 0 C15 4.95 15 9.9 15 15 C19.62 15 24.24 15 29 15 C29 29.52 29 44.04 29 59 C24.38 59 19.76 59 15 59 C15 54.05 15 49.1 15 44 C10.05 44 5.1 44 0 44 C0 48.95 0 53.9 0 59 C-4.62 59 -9.24 59 -14 59 C-14 54.05 -14 49.1 -14 44 C-18.95 44 -23.9 44 -29 44 C-29 34.43 -29 24.86 -29 15 C-24.05 15 -19.1 15 -14 15 C-14 19.95 -14 24.9 -14 30 C-9.38 30 -4.76 30 0 30 C0 20.1 0 10.2 0 0 Z " fill="#030303" transform="translate(206,17)"/>
<path d="M0 0 C14.52 0 29.04 0 44 0 C44 14.52 44 29.04 44 44 C29.48 44 14.96 44 0 44 C0 29.48 0 14.96 0 0 Z " fill="#040404" transform="translate(46,309)"/>
<path d="M0 0 C14.52 0 29.04 0 44 0 C44 14.52 44 29.04 44 44 C29.48 44 14.96 44 0 44 C0 29.48 0 14.96 0 0 Z " fill="#040404" transform="translate(308,47)"/>
<path d="M0 0 C14.19 0 28.38 0 43 0 C43 14.19 43 28.38 43 43 C28.81 43 14.62 43 0 43 C0 28.81 0 14.62 0 0 Z " fill="#FFFFFF" transform="translate(265,266)"/>
<path d="M0 0 C14.19 0 28.38 0 43 0 C43 14.19 43 28.38 43 43 C28.81 43 14.62 43 0 43 C0 28.81 0 14.62 0 0 Z " fill="#000000" transform="translate(46,47)"/>
<path d="M0 0 C4.62 0 9.24 0 14 0 C14 4.62 14 9.24 14 14 C18.95 14 23.9 14 29 14 C29 18.95 29 23.9 29 29 C33.62 29 38.24 29 43 29 C43 33.62 43 38.24 43 43 C19.24 43 -4.52 43 -29 43 C-29 38.38 -29 33.76 -29 29 C-19.43 29 -9.86 29 0 29 C0 19.43 0 9.86 0 0 Z " fill="#000000" transform="translate(192,339)"/>
<path d="M0 0 C4.95 0 9.9 0 15 0 C15 4.95 15 9.9 15 15 C19.62 15 24.24 15 29 15 C29 24.57 29 34.14 29 44 C24.38 44 19.76 44 15 44 C15 48.95 15 53.9 15 59 C10.05 59 5.1 59 0 59 C0 49.1 0 39.2 0 29 C4.62 29 9.24 29 14 29 C14 24.38 14 19.76 14 15 C9.38 15 4.76 15 0 15 C0 10.05 0 5.1 0 0 Z " fill="#F4F4F4" transform="translate(177,61)"/>
<path d="M0 0 C4.62 0 9.24 0 14 0 C14 19.14 14 38.28 14 58 C4.43 58 -5.14 58 -15 58 C-15 53.05 -15 48.1 -15 43 C-10.05 43 -5.1 43 0 43 C0 28.81 0 14.62 0 0 Z " fill="#FEFEFE" transform="translate(265,193)"/>
<path d="M0 0 C4.62 0 9.24 0 14 0 C14 9.57 14 19.14 14 29 C-5.14 29 -24.28 29 -44 29 C-44 24.38 -44 19.76 -44 15 C-29.48 15 -14.96 15 0 15 C0 10.05 0 5.1 0 0 Z " fill="#000000" transform="translate(148,149)"/>
<path d="M0 0 C4.62 0 9.24 0 14 0 C14 14.19 14 28.38 14 43 C4.76 43 -4.48 43 -14 43 C-14 33.76 -14 24.52 -14 15 C-9.38 15 -4.76 15 0 15 C0 10.05 0 5.1 0 0 Z " fill="#000000" transform="translate(250,105)"/>
<path d="M0 0 C4.95 0 9.9 0 15 0 C15 9.57 15 19.14 15 29 C0.48 29 -14.04 29 -29 29 C-29 24.05 -29 19.1 -29 14 C-19.43 14 -9.86 14 0 14 C0 9.38 0 4.76 0 0 Z " fill="#090909" transform="translate(191,295)"/>
<path d="M0 0 C9.24 0 18.48 0 28 0 C28.495 6.93 28.495 6.93 29 14 C35.93 14.495 35.93 14.495 43 15 C43 19.62 43 24.24 43 29 C33.43 29 23.86 29 14 29 C14 24.05 14 19.1 14 14 C9.38 14 4.76 14 0 14 C0 9.38 0 4.76 0 0 Z " fill="#FEFEFE" transform="translate(236,149)"/>
<path d="M0 0 C9.57 0 19.14 0 29 0 C29 4.62 29 9.24 29 14 C24.38 14 19.76 14 15 14 C15 18.95 15 23.9 15 29 C10.05 29 5.1 29 0 29 C0 19.43 0 9.86 0 0 Z " fill="#020202" transform="translate(177,251)"/>
<path d="M0 0 C4.95 0 9.9 0 15 0 C15 9.57 15 19.14 15 29 C5.43 29 -4.14 29 -14 29 C-14 24.38 -14 19.76 -14 15 C-9.38 15 -4.76 15 0 15 C0 10.05 0 5.1 0 0 Z " fill="#070707" transform="translate(250,61)"/>
<path d="M0 0 C4.62 0 9.24 0 14 0 C14 9.57 14 19.14 14 29 C4.43 29 -5.14 29 -15 29 C-15 24.38 -15 19.76 -15 15 C-10.05 15 -5.1 15 0 15 C0 10.05 0 5.1 0 0 Z " fill="#000000" transform="translate(265,353)"/>
<path d="M0 0 C0.33 0 0.66 0 1 0 C1 14.19 1 28.38 1 43 C10.24 43 19.48 43 29 43 C29 38.38 29 33.76 29 29 C29.33 29 29.66 29 30 29 C30 33.95 30 38.9 30 44 C20.43 44 10.86 44 1 44 C1 48.62 1 53.24 1 58 C0.67 58 0.34 58 0 58 C0 53.38 0 48.76 0 44 C-9.24 44 -18.48 44 -28 44 C-28 48.62 -28 53.24 -28 58 C-23.38 58 -18.76 58 -14 58 C-14 58.33 -14 58.66 -14 59 C-18.62 59 -23.24 59 -28 59 C-28 73.19 -28 87.38 -28 102 C-28.33 102 -28.66 102 -29 102 C-29 87.81 -29 73.62 -29 59 C-33.62 59 -38.24 59 -43 59 C-43 54.05 -43 49.1 -43 44 C-38.38 44 -33.76 44 -29 44 C-29 34.43 -29 24.86 -29 15 C-28.67 15 -28.34 15 -28 15 C-28 24.24 -28 33.48 -28 43 C-18.76 43 -9.52 43 0 43 C0 28.81 0 14.62 0 0 Z " fill="#777777" transform="translate(264,105)"/>
<path d="M0 0 C4.95 0 9.9 0 15 0 C15 4.95 15 9.9 15 15 C10.05 15 5.1 15 0 15 C0 19.62 0 24.24 0 29 C-4.62 29 -9.24 29 -14 29 C-14 24.05 -14 19.1 -14 14 C-9.38 14 -4.76 14 0 14 C0 9.38 0 4.76 0 0 Z " fill="#151515" transform="translate(206,178)"/>
<path d="M0 0 C9.57 0 19.14 0 29 0 C29 4.95 29 9.9 29 15 C19.43 15 9.86 15 0 15 C0 10.05 0 5.1 0 0 Z " fill="#090909" transform="translate(104,134)"/>
<path d="M0 0 C4.62 0 9.24 0 14 0 C14 9.57 14 19.14 14 29 C18.95 29 23.9 29 29 29 C29 29.33 29 29.66 29 30 C19.43 30 9.86 30 0 30 C0 20.1 0 10.2 0 0 Z " fill="#0A0A0A" transform="translate(17,134)"/>
<path d="M0 0 C9.57 0 19.14 0 29 0 C29 4.95 29 9.9 29 15 C19.43 15 9.86 15 0 15 C0 10.05 0 5.1 0 0 Z " fill="#F3F3F3" transform="translate(206,105)"/>
<path d="M0 0 C4.62 0 9.24 0 14 0 C14 9.57 14 19.14 14 29 C9.38 29 4.76 29 0 29 C0 19.43 0 9.86 0 0 Z " fill="#FFFFFF" transform="translate(265,324)"/>
<path d="M0 0 C4.62 0 9.24 0 14 0 C14 9.57 14 19.14 14 29 C9.38 29 4.76 29 0 29 C0 19.43 0 9.86 0 0 Z " fill="#000000" transform="translate(367,280)"/>
<path d="M0 0 C9.57 0 19.14 0 29 0 C29 4.62 29 9.24 29 14 C19.43 14 9.86 14 0 14 C0 9.38 0 4.76 0 0 Z " fill="#020202" transform="translate(17,251)"/>
<path d="M0 0 C4.62 0 9.24 0 14 0 C14 9.57 14 19.14 14 29 C9.38 29 4.76 29 0 29 C0 19.43 0 9.86 0 0 Z " fill="#000000" transform="translate(367,178)"/>
<path d="M0 0 C9.57 0 19.14 0 29 0 C29 4.62 29 9.24 29 14 C19.43 14 9.86 14 0 14 C0 9.38 0 4.76 0 0 Z " fill="#020202" transform="translate(133,18)"/>
<path d="M0 0 C4.29 0 8.58 0 13 0 C13 9.24 13 18.48 13 28 C8.71 28 4.42 28 0 28 C0 18.76 0 9.52 0 0 Z " fill="#000000" transform="translate(134,91)"/>
<path d="M0 0 C4.95 0 9.9 0 15 0 C15 4.95 15 9.9 15 15 C10.05 15 5.1 15 0 15 C0 10.05 0 5.1 0 0 Z " fill="#0B0B0B" transform="translate(279,280)"/>
<path d="M0 0 C4.95 0 9.9 0 15 0 C15 4.95 15 9.9 15 15 C10.05 15 5.1 15 0 15 C0 10.05 0 5.1 0 0 Z " fill="#F3F3F3" transform="translate(206,61)"/>
<path d="M0 0 C4.95 0 9.9 0 15 0 C15 4.62 15 9.24 15 14 C10.05 14 5.1 14 0 14 C0 9.38 0 4.76 0 0 Z " fill="#060606" transform="translate(133,368)"/>
<path d="M0 0 C4.95 0 9.9 0 15 0 C15 4.62 15 9.24 15 14 C10.05 14 5.1 14 0 14 C0 9.38 0 4.76 0 0 Z " fill="#060606" transform="translate(133,339)"/>
<path d="M0 0 C4.95 0 9.9 0 15 0 C15 4.62 15 9.24 15 14 C10.05 14 5.1 14 0 14 C0 9.38 0 4.76 0 0 Z " fill="#F7F7F7" transform="translate(235,222)"/>
<path d="M0 0 C4.62 0 9.24 0 14 0 C14 4.95 14 9.9 14 15 C9.38 15 4.76 15 0 15 C0 10.05 0 5.1 0 0 Z " fill="#080808" transform="translate(367,134)"/>
<path d="M0 0 C4.62 0 9.24 0 14 0 C14 4.95 14 9.9 14 15 C9.38 15 4.76 15 0 15 C0 10.05 0 5.1 0 0 Z " fill="#040404" transform="translate(221,105)"/>
<path d="M0 0 C4.95 0 9.9 0 15 0 C15 4.62 15 9.24 15 14 C10.05 14 5.1 14 0 14 C0 9.38 0 4.76 0 0 Z " fill="#060606" transform="translate(133,47)"/>
<path d="M0 0 C4.62 0 9.24 0 14 0 C14 4.62 14 9.24 14 14 C9.38 14 4.76 14 0 14 C0 9.38 0 4.76 0 0 Z " fill="#FFFFFF" transform="translate(250,353)"/>
<path d="M0 0 C4.62 0 9.24 0 14 0 C14 4.62 14 9.24 14 14 C9.38 14 4.76 14 0 14 C0 9.38 0 4.76 0 0 Z " fill="#010101" transform="translate(236,353)"/>
<path d="M0 0 C4.62 0 9.24 0 14 0 C14 4.62 14 9.24 14 14 C9.38 14 4.76 14 0 14 C0 9.38 0 4.76 0 0 Z " fill="#000000" transform="translate(148,353)"/>
<path d="M0 0 C4.62 0 9.24 0 14 0 C14 4.62 14 9.24 14 14 C9.38 14 4.76 14 0 14 C0 9.38 0 4.76 0 0 Z " fill="#000000" transform="translate(163,339)"/>
<path d="M0 0 C4.62 0 9.24 0 14 0 C14 4.62 14 9.24 14 14 C9.38 14 4.76 14 0 14 C0 9.38 0 4.76 0 0 Z " fill="#FFFFFF" transform="translate(294,324)"/>
<path d="M0 0 C4.62 0 9.24 0 14 0 C14 4.62 14 9.24 14 14 C9.38 14 4.76 14 0 14 C0 9.38 0 4.76 0 0 Z " fill="#000000" transform="translate(192,193)"/>
<path d="M0 0 C4.62 0 9.24 0 14 0 C14 4.62 14 9.24 14 14 C9.38 14 4.76 14 0 14 C0 9.38 0 4.76 0 0 Z " fill="#010101" transform="translate(104,193)"/>
<path d="M0 0 C4.62 0 9.24 0 14 0 C14 4.62 14 9.24 14 14 C9.38 14 4.76 14 0 14 C0 9.38 0 4.76 0 0 Z " fill="#000000" transform="translate(352,164)"/>
<path d="M0 0 C4.62 0 9.24 0 14 0 C14 4.62 14 9.24 14 14 C9.38 14 4.76 14 0 14 C0 9.38 0 4.76 0 0 Z " fill="#000000" transform="translate(221,149)"/>
<path d="M0 0 C4.62 0 9.24 0 14 0 C14 4.62 14 9.24 14 14 C9.38 14 4.76 14 0 14 C0 9.38 0 4.76 0 0 Z " fill="#FEFEFE" transform="translate(177,62)"/>
<path d="M0 0 C4.95 0 9.9 0 15 0 C15 0.33 15 0.66 15 1 C10.38 1 5.76 1 1 1 C1 10.24 1 19.48 1 29 C10.24 29 19.48 29 29 29 C29 19.76 29 10.52 29 1 C29.33 1 29.66 1 30 1 C30 10.57 30 20.14 30 30 C20.43 30 10.86 30 1 30 C1 34.62 1 39.24 1 44 C0.67 44 0.34 44 0 44 C0 39.38 0 34.76 0 30 C-9.57 30 -19.14 30 -29 30 C-29 29.67 -29 29.34 -29 29 C-19.43 29 -9.86 29 0 29 C0 19.43 0 9.86 0 0 Z " fill="#818181" transform="translate(162,338)"/>
<path d="M0 0 C0.33 0 0.66 0 1 0 C1 14.52 1 29.04 1 44 C-8.57 44 -18.14 44 -28 44 C-28 48.62 -28 53.24 -28 58 C-28.33 58 -28.66 58 -29 58 C-29 53.38 -29 48.76 -29 44 C-33.62 44 -38.24 44 -43 44 C-43 43.67 -43 43.34 -43 43 C-38.38 43 -33.76 43 -29 43 C-29 38.38 -29 33.76 -29 29 C-28.67 29 -28.34 29 -28 29 C-28 33.62 -28 38.24 -28 43 C-18.76 43 -9.52 43 0 43 C0 28.81 0 14.62 0 0 Z " fill="#7E7E7E" transform="translate(264,324)"/>
</svg>
