<svg width="1280" height="720" viewBox="0 0 1280 720" fill="none" xmlns="http://www.w3.org/2000/svg">
  <rect width="1280" height="720" rx="36" fill="#09141E"/>
  <rect x="32" y="32" width="1216" height="656" rx="28" stroke="#1A3744" stroke-width="2"/>
  <rect x="96" y="116" width="1088" height="470" rx="26" fill="url(#paint0_linear)" stroke="#254D5E"/>
  <circle cx="356" cy="314" r="86" fill="#173543"/>
  <circle cx="640" cy="314" r="86" fill="#173543"/>
  <circle cx="924" cy="314" r="86" fill="#173543"/>
  <path d="M250 488C250 417.86 306.86 361 377 361H335C405.14 361 462 417.86 462 488V504H250V488Z" fill="#153544"/>
  <path d="M534 488C534 417.86 590.86 361 661 361H619C689.14 361 746 417.86 746 488V504H534V488Z" fill="#153544"/>
  <path d="M818 488C818 417.86 874.86 361 945 361H903C973.14 361 1030 417.86 1030 488V504H818V488Z" fill="#153544"/>
  <rect x="202" y="610" width="876" height="20" rx="10" fill="#123341"/>
  <text x="640" y="84" fill="#77F0D7" font-family="'IBM Plex Mono', monospace" font-size="28" letter-spacing="4" text-anchor="middle">VOLUNTEERING PROOF PLACEHOLDER</text>
  <text x="640" y="650" fill="#EAF8FF" font-family="'Sora', sans-serif" font-size="34" font-weight="600" text-anchor="middle">Dodaj fotografije ili objave sa događaja</text>
  <text x="640" y="688" fill="#8CA5B7" font-family="'Sora', sans-serif" font-size="20" text-anchor="middle">public/images/volunteering/volunteering-proof-placeholder.svg</text>
  <defs>
    <linearGradient id="paint0_linear" x1="96" y1="116" x2="1184" y2="586" gradientUnits="userSpaceOnUse">
      <stop stop-color="#102838"/>
      <stop offset="1" stop-color="#0C1D27"/>
    </linearGradient>
  </defs>
</svg>
